<svg xmlns="http://www.w3.org/2000/svg" width="377.027" height="141.004"><path fill="#231F20" d="M351.494 113.478h-4.212c-.397 0-.72.322-.72.72v4.104c0 .398.322.72.72.72h4.212c.397 0 .72-.322.72-.72v-4.104c0-.398-.322-.72-.72-.72z"/><path fill="#231F20" d="M340.804 100.842c-.033.41.308.756.72.756h3.845c.364 0 .687-.271.715-.635.031-.413.095-.808.191-1.183.144-.563.365-1.056.666-1.476.3-.42.684-.756 1.151-1.008.469-.252 1.026-.378 1.675-.378.959 0 1.71.264 2.25.792s.81 1.344.81 2.448c.023.647-.09 1.188-.342 1.619-.252.433-.582.828-.99 1.188s-.853.72-1.332 1.08c-.48.359-.936.786-1.368 1.277-.432.492-.81 1.087-1.134 1.782-.324.696-.521 1.561-.594 2.592v.9c0 .398.322.72.72.72h4.14v-1.367c.096-.721.33-1.32.702-1.801.372-.479.798-.905 1.278-1.277.479-.372.99-.744 1.53-1.116s1.031-.822 1.476-1.351c.444-.527.815-1.163 1.116-1.907.3-.744.45-1.692.45-2.845 0-.695-.15-1.445-.45-2.25-.301-.804-.798-1.553-1.494-2.25-.696-.695-1.614-1.277-2.754-1.745-1.141-.469-2.562-.702-4.266-.702-1.32 0-2.515.222-3.582.666-1.068.444-1.98 1.062-2.736 1.854s-1.345 1.729-1.764 2.809c-.338.866-.547 1.802-.629 2.808z"/><path fill="#231F20" d="M167.54 77.62h4.211c.397 0 .72-.322.72-.72v-10.368h10.404v10.368c0 .398.323.72.721.72h4.212c.397 0 .72-.322.72-.72v-24.264c0-.398-.322-.72-.72-.72h-4.212c-.397 0-.721.322-.721.72v9.144h-10.404v-9.144c0-.398-.322-.72-.72-.72h-4.211c-.398 0-.721.322-.721.72v24.264c0 .398.323.72.721.72z"/><path fill="#231F20" d="M193.135 75.388c.816.864 1.812 1.53 2.988 1.998s2.496.702 3.96.702c2.111 0 3.912-.479 5.4-1.44 1.252-.807 2.232-2.066 2.941-3.775.198-.479-.146-1.012-.665-1.012h-2.987c-.251 0-.501.121-.614.345-.227.45-.638.881-1.231 1.293-.744.517-1.632.773-2.664.773-1.439 0-2.544-.371-3.312-1.115-.769-.744-1.188-1.944-1.26-3.601h12.734c.387 0 .716-.307.724-.695.021-1.19-.108-2.338-.391-3.445-.336-1.319-.882-2.496-1.638-3.528-.756-1.031-1.723-1.854-2.897-2.466-1.177-.612-2.557-.918-4.141-.918-1.416 0-2.706.252-3.87.756s-2.166 1.194-3.006 2.07-1.488 1.914-1.944 3.114-.684 2.496-.684 3.888c0 1.439.222 2.76.666 3.96s1.075 2.231 1.891 3.096zm2.79-10.296c.132-.455.36-.888.685-1.296s.756-.75 1.296-1.026c.54-.275 1.218-.414 2.034-.414 1.247 0 2.178.337 2.79 1.009.611.672 1.037 1.655 1.277 2.951h-8.315c.023-.36.101-.768.233-1.224z"/><path fill="#231F20" d="M215.059 76.468c.145.36.216.744.216 1.152 0 .552-.162 1.056-.485 1.512-.324.456-.823.72-1.494.792-.504.023-1.008.012-1.513-.036l-1.476-.144v3.547c0 .375.292.691.667.722l.899.068c.516.036 1.037.054 1.565.054 1.752 0 3.12-.324 4.104-.972.983-.648 1.751-1.729 2.304-3.24l7.416-19.945c.175-.47-.174-.971-.675-.971h-3.73c-.313 0-.591.203-.687.501l-3.908 12.243h-.072l-4.049-12.25c-.097-.295-.373-.494-.683-.494h-3.879c-.502 0-.85.501-.674.972l6.154 16.489z"/><path fill="#231F20" d="M237.667 77.62h3.852c.397 0 .72-.322.72-.72v-17.316h.071l6.133 17.554c.101.289.373.482.68.482h3.331c.307 0 .58-.194.681-.485l6.132-17.731h.072v17.496c0 .398.322.72.721.72h3.852c.397 0 .72-.322.72-.72v-24.264c0-.398-.322-.72-.72-.72h-6.712c-.312 0-.589.202-.685.5l-5.527 17.176h-.072l-5.846-17.188c-.099-.292-.373-.488-.682-.488h-6.72c-.398 0-.721.322-.721.72v24.264c-.001.398.322.72.72.72z"/><path fill="#231F20" d="M268.447 56.128h3.672c.397 0 .72-.322.72-.72v-2.771c0-.398-.322-.72-.72-.72h-3.672c-.397 0-.721.322-.721.72v2.771c.001.398.324.72.721.72z"/><path fill="#231F20" d="M268.447 77.62h3.672c.397 0 .72-.322.72-.72v-17.172c0-.398-.322-.72-.72-.72h-3.672c-.397 0-.721.322-.721.72v17.172c.001.398.324.72.721.72z"/><path fill="#231F20" d="M277.32 76.684c.804.504 1.722.864 2.754 1.08 1.031.216 2.088.324 3.168.324 1.056 0 2.094-.103 3.114-.306 1.02-.204 1.926-.559 2.718-1.062s1.434-1.17 1.926-1.998.738-1.854.738-3.078c0-.863-.168-1.589-.504-2.178-.337-.588-.78-1.08-1.332-1.476-.553-.396-1.183-.714-1.891-.954s-1.434-.444-2.178-.612c-.72-.168-1.428-.324-2.124-.468-.696-.145-1.313-.307-1.854-.486s-.979-.414-1.314-.702-.504-.659-.504-1.115c0-.384.096-.69.288-.919.191-.228.426-.401.702-.521.275-.12.581-.198.918-.234.336-.036.647-.054.936-.054.912 0 1.704.175 2.376.522.542.28.889.768 1.041 1.461.069.318.366.537.691.537h3.417c.456 0 .796-.423.709-.872-.147-.771-.402-1.434-.764-1.99-.492-.756-1.11-1.362-1.854-1.818-.744-.455-1.59-.779-2.538-.972s-1.926-.288-2.934-.288-1.992.09-2.952.27c-.96.181-1.824.492-2.592.937-.769.444-1.386 1.05-1.854 1.818-.468.768-.702 1.752-.702 2.951 0 .816.168 1.507.505 2.07.335.564.779 1.032 1.331 1.404.553.372 1.183.672 1.891.899.707.229 1.434.427 2.178.595 1.824.384 3.246.768 4.267 1.151 1.02.385 1.529.961 1.529 1.729 0 .456-.107.834-.324 1.134-.216.301-.485.54-.81.72-.324.181-.684.312-1.08.396-.396.084-.773.126-1.134.126-.504 0-.99-.06-1.458-.181-.468-.119-.882-.306-1.242-.558s-.654-.576-.882-.972c-.141-.244-.237-.518-.291-.821-.062-.345-.354-.601-.704-.601h-3.421c-.445 0-.774.402-.714.843.121.88.379 1.636.773 2.271.517.828 1.177 1.494 1.981 1.998z"/><path fill="#231F20" d="M292.243 62.428h2.375v10.98c0 .936.156 1.691.469 2.268.312.576.737 1.021 1.277 1.332.54.312 1.164.522 1.872.63.708.108 1.458.162 2.25.162.504 0 1.021-.013 1.548-.036.279-.013.544-.032.796-.058.368-.038.645-.349.645-.718v-3.328c-.24.048-.492.084-.756.107-.265.024-.54.036-.828.036-.864 0-1.44-.144-1.728-.432-.288-.288-.433-.864-.433-1.729v-9.216h3.024c.397 0 .72-.322.72-.72v-1.979c0-.398-.322-.72-.72-.72h-3.024v-4.86c0-.398-.322-.72-.72-.72h-3.672c-.398 0-.721.322-.721.72v4.86h-2.375c-.397 0-.721.322-.721.72v1.979c.001.399.325.722.722.722z"/><path fill="#231F20" d="M306.103 75.388c.816.864 1.812 1.53 2.988 1.998s2.496.702 3.96.702c2.111 0 3.912-.479 5.4-1.44 1.252-.807 2.232-2.066 2.941-3.775.198-.479-.146-1.012-.664-1.012h-2.988c-.251 0-.501.121-.614.345-.227.45-.637.881-1.231 1.293-.744.517-1.632.773-2.664.773-1.439 0-2.544-.371-3.312-1.115-.769-.744-1.188-1.944-1.26-3.601h12.734c.387 0 .716-.307.723-.695.022-1.19-.107-2.338-.39-3.445-.336-1.319-.882-2.496-1.638-3.528-.756-1.031-1.723-1.854-2.897-2.466-1.177-.612-2.557-.918-4.141-.918-1.416 0-2.706.252-3.87.756s-2.166 1.194-3.006 2.07-1.488 1.914-1.944 3.114-.684 2.496-.684 3.888c0 1.439.222 2.76.666 3.96s1.075 2.231 1.891 3.096zm2.79-10.296c.132-.455.36-.888.685-1.296s.756-.75 1.296-1.026c.54-.275 1.218-.414 2.034-.414 1.247 0 2.178.337 2.79 1.009.611.672 1.037 1.655 1.277 2.951h-8.315c.023-.36.101-.768.233-1.224z"/><path fill="#231F20" d="M324.355 77.62h3.671c.397 0 .72-.322.72-.72v-7.668c0-.84.084-1.619.252-2.34.168-.72.45-1.35.847-1.89.396-.54.918-.966 1.565-1.278.648-.312 1.44-.468 2.376-.468.312 0 .636.018.973.054.336.036.623.078.863.126v-4.752c-.408-.119-.78-.18-1.115-.18-.648 0-1.272.096-1.872.288-.601.192-1.165.462-1.692.81-.528.349-.996.769-1.404 1.261s-.732 1.025-.972 1.602h-.072v-2.736c0-.398-.322-.72-.72-.72h-3.419c-.397 0-.721.322-.721.72v17.171c0 .398.323.72.72.72z"/><path fill="#231F20" d="M337.136 77.62h1.871c.023.384-.024.762-.145 1.134s-.3.708-.54 1.008c-.239.3-.521.559-.846.774-.188.125-.383.227-.583.303-.271.104-.442.37-.442.659v1.165c0 .484.468.825.934.695.429-.12.844-.274 1.244-.464.684-.323 1.278-.737 1.782-1.241.504-.505.905-1.099 1.206-1.782.3-.685.449-1.435.449-2.25v-4.824c0-.398-.322-.72-.72-.72h-4.211c-.398 0-.721.322-.721.72v4.103c.001.398.323.72.722.72z"/><path fill="#231F20" d="M185.589 93.317h-4.169c-.329 0-.616.223-.698.542l-4.325 16.954h-.072l-3.938-16.939c-.076-.326-.367-.557-.701-.557h-4.145c-.473 0-.817.447-.696.904l6.423 24.264c.084.315.369.536.696.536h4.604c.331 0 .62-.227.699-.549l4.149-16.947h.072l4.22 16.95c.08.321.368.546.698.546h4.502c.325 0 .61-.219.695-.533l6.524-24.264c.123-.458-.221-.907-.695-.907h-4.035c-.334 0-.624.229-.701.553l-4.08 17.159h-.072l-4.256-17.166c-.08-.32-.368-.546-.699-.546z"/><path fill="#231F20" d="M222.26 93.317h-19.621c-.397 0-.72.322-.72.72v3.312c0 .397.322.72.72.72h6.984v20.232c0 .398.322.72.72.72h4.213c.397 0 .72-.322.72-.72v-20.232h6.984c.397 0 .72-.323.72-.72v-3.312c-.001-.397-.323-.72-.72-.72z"/><path fill="#231F20" d="M243.823 94.037c0-.397-.322-.72-.72-.72h-16.632c-.397 0-.72.322-.72.72v24.264c0 .398.322.72.72.72h4.212c.397 0 .72-.322.72-.72v-9.9h10.045c.397 0 .72-.322.72-.72v-2.952c0-.397-.322-.72-.72-.72h-10.045v-5.94h11.7c.397 0 .72-.323.72-.72v-3.312z"/><path fill="#231F20" d="M338.304 118.732h-91.98c-1.381 0-2.5 1.119-2.5 2.5s1.119 2.5 2.5 2.5h91.98c1.381 0 2.5-1.119 2.5-2.5s-1.119-2.5-2.5-2.5z"/><path fill="#231F20" d="M372.027 32.834h-231.842c-2.762 0-5 2.239-5 5v34.569l-24.008 24.243c-1.42 1.434-1.839 3.58-1.062 5.443.777 1.862 2.598 3.075 4.615 3.075h20.455v30.988c0 2.762 2.238 5 5 5h231.843c2.762 0 5-2.238 5-5v-98.318c-.001-2.761-2.239-5-5.001-5zm0 103.319h-220.039v-35.988h-25.455l25.455-25.704v-36.627h220.039v98.319z"/><path fill="#231F20" d="M106.022 26.024c-4.568 1.738-9.2 2.162-13.703 1.196 6.43-3.463 10.732-10.235 11.076-17.829.101-2.224-2.771-3.219-4.268-1.768-6.716 6.514-16.274 3.025-23.631-.212-7.515-3.308-14.771-6.152-22.996-7.189-2.325-.293-4.781-.374-7.235-.212-1.006-.066-2.027-.094-3.055-.08-9.931-.142-20.737 3.56-23.285 13.46-.768-.136-1.542-.182-2.312-.135-3.811-.19-7.651 1.833-10.037 5.326-4.255 6.227-5.022 15.037-5.75 22.349-1.626 16.345-1.193 34.453 4.423 50.064.062.171.146.33.24.481.348 7.008 1.637 13.955 4.357 20.77 3.549 8.887 8.682 17.83 17.061 22.941 8.258 5.038 18.955 6.149 29.371 5.741l.019-.001c.567-.012 1.131-.037 1.692-.069h.068l.155-.009.022-.001c1.17-.024 2.27-.153 3.337-.334l.285-.035.637-.116c22.748-3.786 26.66-32.982 28.465-51.663 1.192-12.351.979-25.375-1.688-37.539-.259-1.178-.555-2.359-.891-3.534 9.152-3.18 17.467-9.205 20.719-18.526.597-1.712-1.327-3.741-3.076-3.076zm-19.765 59.069c-.646 9.348-2.365 18.581-4.895 27.594-.391 1.392-.797 2.779-1.225 4.16-2.777 8.951-8.475 16.748-18.251 18.587-2.882.542-6.022.702-9.198.508l-.563-.035c-5.934-.442-11.947-2.139-16.603-5.038-7.598-4.731-12.229-13.194-15.309-21.358-2.359-6.256-3.461-12.642-3.729-19.086 4.339-8.982 5.52-19.528 7.715-29.141 1.354-5.931 3.568-17.848 9.656-20.766.163-.078.332-.144.501-.208 1.634-.628 3.528-.635 5.747.264 6.594 2.187 12.506 6.083 19.166 8.089 3.055.92 6.24 1.442 9.449 1.645l.527.041c2.844.146 5.698.023 8.5-.308.354-.042.709-.083 1.061-.132l.496-.062c1.131-.167 2.27-.391 3.409-.642l.856-.185c.396 1.396.74 2.799 1.027 4.188 2.143 10.358 2.391 21.359 1.663 31.885zm14.284-50.899c-3.467 4.067-8.44 6.942-13.751 8.759-1.594.545-3.215.996-4.836 1.355-2.819.625-5.633.977-8.271 1.07-1.38.049-2.747.027-4.104-.053l-.535-.033c-4.309-.309-8.501-1.279-12.538-2.993-5.051-2.143-9.851-4.815-15.072-6.547-2.875-1.165-5.357-1.329-7.515-.785l-.5.143c-3.173.984-5.616 3.529-7.534 6.687-1.375 2.261-2.48 4.831-3.397 7.358-.381 1.051-.731 2.095-1.053 3.104l-.013.038-.157.499c-1.307 4.182-2.18 8.584-3.021 13.017-.646 3.405-1.278 6.826-2.07 10.181-.567 2.401-1.215 4.769-2.017 7.068-.146-.575-.279-1.154-.412-1.732-.555-2.422-1.003-4.873-1.354-7.342-.105-.747-.198-1.496-.287-2.245-.146-1.228-.271-2.458-.377-3.691-.443-5.194-.549-10.417-.462-15.551.105-6.293.536-12.622 1.636-18.825.478-2.69 1.011-5.455 1.906-8.044.689-1.992 2.216-4.844 4.216-6.46.183-.147.37-.281.56-.406 1.12-.738 2.367-1.062 3.686-.65.311.097.625.233.942.417.324.187.651.416.981.702 1.625 1.404 4.209.489 4.269-1.768.21-8.039 7.479-11.758 14.571-12.511l.391-.035c.922-.084 1.839-.125 2.733-.111 8.122.118 16.011 2.536 23.37 5.812 5.082 2.263 10.752 4.647 16.32 5.359l.616.075c.999.105 1.994.154 2.981.136.378-.007.753-.035 1.129-.062 1.654-.12 3.279-.447 4.859-1.023.252-.092.506-.168.756-.273-.533 1.284-1.231 2.474-2.065 3.554-2.591 3.361-6.512 5.649-11.03 6.265-2.169.295-2.36 3.631-.598 4.569 3.413 1.815 7.014 2.918 10.674 3.319l.558.07c.3.027.601.035.901.052.354.02.707.037 1.062.043 1.633.031 3.272-.078 4.907-.338l.384-.05c-.444.649-.926 1.274-1.439 1.876z"/><path fill="#231F20" d="M39.776 63.657c-.165.099-.328.204-.486.328l-.081.055c-3.578 1.742-5.972 8.555-6.413 11.917-.577 4.399.413 12.083 4.587 14.47.156.089.317.169.481.243 1.365.612 3.036.694 5.07-.022 3.833-1.35 5.794-5.691 6.6-10.328.369-2.127.495-4.313.445-6.305-.039-1.578-.188-3.033-.412-4.232-.835-4.447-6.076-8.348-9.791-6.126zm5.91 12.461c-.213.234-.466.429-.741.583-.346.192-.728.309-1.118.353-.585.066-1.188-.038-1.708-.369-.852-.543-1.395-1.45-1.574-2.438-.325-1.795.053-4.403 2.018-5.058.223-.114.459-.191.7-.25.351-.086.713-.109 1.075-.059.135.019.27.036.402.076 1.201.363 1.93 1.417 2.091 2.616.211 1.574-.043 3.334-1.145 4.546z"/><path fill="#231F20" d="M60.737 90.3c.175.083.35.167.534.236.996.37 2.14.528 3.462.387 6.732-.718 7.432-11.002 7.471-16.108.024-3.117-.964-6.539-2.932-8.547-.03-1.439-1.255-3.01-3.127-2.697-.971.163-1.86.425-2.684.761-.273.111-.541.229-.798.358-4.689 2.346-6.803 7.505-7.076 13.006-.224 4.505.987 10.609 5.15 12.604zm3.617-21.112c.188-.096.388-.169.59-.227.338-.096.688-.14 1.041-.109.183.016.365.048.546.103 1.201.363 1.93 1.417 2.092 2.616.211 1.576-.042 3.336-1.145 4.548-.094.104-.199.195-.307.283-.326.268-.71.458-1.115.568-.715.193-1.494.13-2.146-.285-.853-.543-1.395-1.45-1.574-2.438-.326-1.797.052-4.405 2.018-5.059z"/><path fill="#231F20" d="M69.81 97.423c-1.773-.819-3.841-.748-5.948-.342l-.671.141c-2.631.586-5.282 1.602-7.466 1.994-3.561.639-8.804 1.47-13.601 1.122l-.532-.037c-3.978-.367-7.588-1.595-9.579-4.511l-.07-.085-.088-.501c-.481-2.904-4.562-2.01-4.836.589-.024.235-.029.479.015.741l.114.641c.396 2.28.877 4.461 1.48 6.541.922 3.18 2.133 6.123 3.783 8.81 2.27 3.696 5.361 6.914 9.672 9.612 2.047 1.282 4.434 2.067 6.946 2.412l.65.064c7.228.77 15.352-2.025 19.54-7.315 3.863-4.882 8.726-16.122.591-19.876zm-.669 8.654c-.165.961-.487 1.916-.743 2.643-.775 2.207-1.972 4.299-3.531 6.029-1.785 1.981-4.047 3.484-6.72 4.11-2.38.558-5.466.848-8.319.541l-.541-.063c-1.748-.239-3.384-.717-4.68-1.518-5.387-3.328-8.424-7.716-10.327-12.857l-.053-.142c-.18-.492-.353-.988-.513-1.493 2.485 1.112 5.266 1.582 8.132 1.746l.364.024c1.887.091 3.807.055 5.705-.023 4-.165 8.023-.705 11.927-1.602.598-.137 1.489-.443 2.484-.738l.806-.229c1.688-.451 3.524-.74 4.752-.129.39.194.726.469.966.871.219.367.333.792.377 1.244.049.504.006 1.045-.086 1.586z"/><path fill="#231F20" d="M64.655 54.546l-.619.104c-1.502.266-3.007.673-4.476 1.136-1.839.58-2.092 2.552-1.338 3.825l.158.239c.528.701 1.401 1.107 2.509.758.906-.286 1.888-.605 2.895-.865l.674-.163c1.734-.39 3.51-.538 5.088.029.311.112.613.254.906.425.348.203.686.441 1.003.739 2.349 2.196 5.892-1.332 3.536-3.536-3.015-2.82-6.652-3.239-10.336-2.691z"/><path fill="#231F20" d="M32.015 58.826c.705 1.316 2.587 2.123 4.044.811.952-.857 2.158-1.812 3.445-2.525.193-.107.388-.208.584-.302.762-.367 1.542-.64 2.308-.729 1.318-.154 2.785.693 4.13 1.658.313.225.619.455.915.681.568.434 1.099.851 1.567 1.171 1.138.779 2.243.43 2.934-.363.647-.743.921-1.872.511-2.841-.175-.416-.468-.803-.921-1.113-2.927-2.004-5.751-4.885-9.534-4.23-.513.088-1.016.214-1.514.358l-.604.196c-2.738.92-5.244 2.601-7.356 4.504-.699.63-.882 1.375-.746 2.062.045.23.123.452.237.662z"/></svg>