<svg xmlns="http://www.w3.org/2000/svg" width="541.665" height="113.448"><path d="M87.922 23.806c.616-1.724-1.338-3.717-3.075-3.075-3.161 1.168-6.279 1.569-9.349 1.155 4.598-2.994 7.569-8.123 7.898-13.916.129-2.258-2.771-3.17-4.268-1.768-5.87 5.506-13.991 1.606-20.161-1.133-5.696-2.528-11.487-4.412-17.718-5.035-1.751-.175-3.548-.186-5.324-.034-8.611-.719-18.213 2.332-20.687 10.793-3.428-.829-7.042.517-9.469 3.648-3.7 4.776-4.354 11.851-4.993 17.649-1.474 13.379-1.12 28.228 3.437 41.025.058.162.136.311.223.455.304 5.792 1.404 11.536 3.733 17.18 2.99 7.247 7.283 14.352 14.289 18.308 6.738 3.805 14.299 4.813 23.657 4.24l.064-.007c1.636-.076 3.237-.262 4.768-.572 7.498-1.521 13.473-6.982 16.372-13.935 3.933-9.434 5.705-20.351 6.407-30.504.591-8.539.783-19.875-1.985-29.612 7.174-2.646 13.544-7.489 16.181-14.862zm-19.086 42.675c-.432 8.284-1.92 16.468-4.21 24.435-2.186 7.602-5.542 14.542-13.899 16.718-2.65.69-5.659.879-8.69.641-4.627-.363-9.308-1.73-12.854-3.898-6.285-3.842-10.047-11.068-12.442-17.803-1.619-4.549-2.397-9.195-2.61-13.886 3.283-6.93 4.301-14.933 5.953-22.339 1.04-4.658 2.711-14.573 7.529-16.999 1.319-.664 2.874-.77 4.718-.047 5.184 1.741 9.851 4.774 15.081 6.385 2.536.781 5.185 1.222 7.854 1.386 2.377.147 4.768.068 7.114-.202.539-.062 1.079-.126 1.613-.208 1.008-.154 2.019-.359 3.026-.592 2.454 8.729 2.2 19.061 1.817 26.409zm1.279-32.481c-1.564.569-3.169 1.024-4.777 1.362-2.374.498-4.743.758-6.947.787-.898.011-1.769-.037-2.626-.113-8.035-.713-14.445-4.982-22.105-7.555-2.5-.98-4.642-1.056-6.495-.519-3.467 1.004-5.908 4.188-7.686 7.869-.936 1.938-1.689 4.009-2.314 5.964-2.347 7.337-3.001 15.482-5.284 22.935-.672-3.051-1.12-6.157-1.415-9.279-.148-1.577-.251-3.157-.328-4.737-.112-2.289-.164-4.577-.154-6.849.02-4.841.277-9.714.988-14.507.343-2.314 1.696-10.175 4.556-13.098 1.049-1.072 2.302-1.472 3.78-.696.298.156.603.348.918.604 1.676 1.357 4.161.521 4.269-1.768.296-6.364 5.843-8.879 11.403-9.417 1.544-.15 3.09-.155 4.523-.038 6.572.538 12.5 2.91 18.464 5.542 3.406 1.502 7.042 2.776 10.635 3.207.723.086 1.442.139 2.159.152 1.802.032 3.578-.178 5.294-.725-1.865 3.499-5.377 5.887-9.598 6.513-2.145.317-2.391 3.637-.598 4.569 2.844 1.479 5.779 2.386 8.76 2.708l.206.016c1.615.16 3.243.158 4.877-.035-2.583 3.279-6.378 5.607-10.505 7.108zm-38.699 17.125c-2.926 1.618-4.91 6.992-5.281 9.875-.656 5.104 1.304 14.768 8.721 12.193 5.859-2.034 6.597-12.103 5.648-17.18-.768-4.11-5.843-7.559-9.088-4.888zm5.177 9.598c-.671.738-1.845.985-2.716.431-.648-.413-1.062-1.104-1.198-1.857-.248-1.367.04-3.352 1.536-3.85.507-.259 1.096-.347 1.657-.178.915.276 1.47 1.079 1.592 1.991.161 1.2-.031 2.54-.871 3.463zm15.494 12.71c5.735-.556 6.427-8.955 6.461-13.341.02-2.571-.793-5.294-2.352-6.996-.156-1.366-1.353-2.749-3.119-2.453-5.927.993-8.508 6.189-8.784 11.744-.242 4.866 1.586 11.649 7.794 11.046zm-1.23-16.194c.274-.505.677-.87 1.266-1.073.144-.05.297-.075.452-.087.74-.111 1.465.168 1.957.79.147.151.273.319.378.503l.046.071c.114.217.205.448.249.7.097.562.1 1.152.058 1.721-.078 1.054-.654 1.978-1.696 2.308-1.758.558-3.341-.983-3.313-2.702.011-.758.188-1.579.603-2.231zm5.949 20.691c-2.944-1.691-6.51-.127-9.518.583-5.395 1.275-16.983 3.382-20.829-1.969l-.019-.021-.058-.325c-.528-3.167-5.348-1.823-4.821 1.329 1.482 8.878 4.608 16.556 12.914 21.121 6.796 3.735 17.279 1.292 21.841-4.741 3.149-4.162 6.513-12.516.49-15.977zm-6.903 15.42c-3.083 2.1-9.517 2.558-12.904.981-4.691-2.183-7.264-6.197-8.821-10.699 2.433.864 5.159 1.09 8.093 1.114 2.947.024 5.884-.242 8.791-.708 2.613-.419 9.534-3.577 9.938 1.063.242 2.785-3.058 6.86-5.097 8.249zm-2.072-48.908c-3.058.964-1.752 5.793 1.329 4.821 2.433-.767 5.761-2.021 7.923 0 2.349 2.197 5.892-1.332 3.535-3.536-3.657-3.419-8.396-2.67-12.787-1.285zm-18.228 3.917c1.218-1.097 3.122-2.57 4.824-2.703 1.554-.122 3.617 1.884 4.875 2.746 2.662 1.823 5.166-2.508 2.524-4.317-2.448-1.676-4.813-4.04-7.988-3.421-2.943.574-5.569 2.177-7.771 4.16-2.396 2.158 1.149 5.684 3.536 3.535zm381.105 38.874h91.98c1.381 0 2.5-1.119 2.5-2.5s-1.119-2.5-2.5-2.5h-91.98c-1.381 0-2.5 1.119-2.5 2.5s1.119 2.5 2.5 2.5zm105.171-10.461h-4.211c-.398 0-.721.322-.721.72v4.104c0 .397.322.72.721.72h4.211c.397 0 .72-.323.72-.72v-4.104c0-.397-.323-.72-.72-.72zm-9.971-11.879h3.845c.364 0 .687-.272.715-.636.032-.413.096-.807.191-1.183.144-.563.365-1.055.666-1.476.3-.419.684-.755 1.151-1.008.47-.251 1.026-.377 1.675-.377.959 0 1.711.264 2.25.792.54.528.81 1.343.81 2.448.023.648-.09 1.188-.342 1.62-.252.433-.582.828-.99 1.188s-.853.72-1.332 1.08c-.48.36-.935.787-1.368 1.278-.432.492-.81 1.087-1.134 1.782-.324.696-.521 1.56-.594 2.592v.9c0 .397.322.72.721.72h4.139v-1.368c.096-.72.33-1.32.702-1.801.372-.479.798-.905 1.278-1.277.479-.372.99-.744 1.53-1.116.541-.372 1.031-.823 1.476-1.351.444-.527.815-1.163 1.116-1.907.3-.745.451-1.692.451-2.845 0-.695-.151-1.445-.451-2.25-.301-.804-.798-1.553-1.494-2.25-.696-.695-1.614-1.277-2.754-1.746-1.141-.468-2.562-.702-4.266-.702-1.32 0-2.515.222-3.582.666-1.068.444-1.98 1.061-2.736 1.854-.756.792-1.344 1.728-1.764 2.809-.337.866-.547 1.802-.629 2.808-.033.41.309.756.72.756zm-361.268 17.523h4.211c.397 0 .72-.322.72-.72v-10.368h10.404v10.368c0 .397.322.72.721.72h4.212c.397 0 .72-.322.72-.72v-24.264c0-.397-.322-.72-.72-.72h-4.212c-.398 0-.721.322-.721.72v9.144h-10.405v-9.144c0-.397-.322-.72-.72-.72h-4.211c-.398 0-.721.322-.721.72v24.264c.001.397.323.72.722.72zm25.594-2.233c.816.864 1.812 1.53 2.988 1.998s2.496.702 3.96.702c2.111 0 3.912-.479 5.4-1.44 1.252-.807 2.232-2.066 2.941-3.775.198-.479-.146-1.012-.664-1.012h-2.988c-.251 0-.501.121-.614.345-.227.45-.638.882-1.231 1.293-.744.517-1.632.773-2.664.773-1.439 0-2.544-.371-3.312-1.115-.769-.744-1.188-1.944-1.26-3.601h12.734c.387 0 .716-.307.724-.694.021-1.19-.108-2.338-.391-3.445-.336-1.32-.882-2.497-1.638-3.529-.756-1.031-1.723-1.854-2.897-2.466-1.177-.612-2.557-.917-4.141-.917-1.416 0-2.706.251-3.87.755s-2.166 1.194-3.006 2.07-1.488 1.914-1.944 3.114-.684 2.496-.684 3.888c0 1.439.222 2.759.666 3.959s1.076 2.233 1.891 3.097zm2.79-10.296c.132-.455.36-.888.685-1.296s.756-.75 1.296-1.026c.54-.275 1.218-.414 2.034-.414 1.247 0 2.178.337 2.79 1.009.611.672 1.037 1.655 1.277 2.951h-8.315c.023-.36.102-.768.233-1.224zm19.134 11.376c.145.36.216.745.216 1.152 0 .552-.162 1.056-.485 1.512-.324.456-.823.72-1.494.792-.504.023-1.008.012-1.513-.036l-1.476-.144v3.548c0 .375.292.691.666.722l.9.069c.516.036 1.037.053 1.565.053 1.752 0 3.12-.324 4.104-.972.983-.648 1.751-1.729 2.304-3.24l7.416-19.945c.175-.471-.174-.971-.675-.971h-3.73c-.313 0-.591.202-.687.501l-3.908 12.243h-.072l-4.049-12.25c-.097-.295-.373-.494-.684-.494h-3.878c-.502 0-.85.501-.674.972l6.154 16.488zm22.609 1.153h3.852c.397 0 .72-.322.72-.72v-17.317h.071l6.133 17.554c.101.289.373.482.68.482h3.331c.307 0 .58-.194.681-.484l6.132-17.731h.072v17.496c0 .397.322.72.721.72h3.852c.397 0 .72-.322.72-.72v-24.264c0-.397-.322-.72-.72-.72h-6.711c-.313 0-.59.202-.686.499l-5.527 17.176h-.072l-5.848-17.187c-.099-.292-.373-.488-.682-.488h-6.72c-.398 0-.721.322-.721.72v24.264c.001.397.323.72.722.72zm30.78-21.493h3.672c.397 0 .72-.322.72-.72v-2.772c0-.397-.322-.72-.72-.72h-3.672c-.398 0-.721.322-.721.72v2.772c0 .398.322.72.721.72zm0 21.493h3.672c.397 0 .72-.322.72-.72v-17.173c0-.397-.322-.72-.72-.72h-3.672c-.398 0-.721.322-.721.72v17.172c0 .398.322.721.721.721zm8.873-.937c.804.504 1.722.864 2.754 1.08 1.031.216 2.088.324 3.168.324 1.056 0 2.094-.103 3.114-.306 1.02-.204 1.926-.559 2.718-1.062s1.434-1.169 1.926-1.998c.492-.828.738-1.854.738-3.078 0-.863-.168-1.589-.504-2.178-.337-.588-.78-1.08-1.332-1.476-.553-.396-1.183-.714-1.891-.954s-1.434-.444-2.178-.612c-.72-.168-1.428-.324-2.124-.468-.696-.145-1.313-.306-1.854-.486-.54-.18-.979-.414-1.314-.702s-.504-.659-.504-1.115c0-.384.096-.69.288-.919.191-.228.426-.401.702-.521.275-.121.581-.199.918-.235.336-.036.647-.054.936-.054.912 0 1.704.175 2.376.522.542.28.889.768 1.041 1.462.069.318.366.536.691.536h3.416c.457 0 .797-.423.71-.872-.147-.771-.402-1.435-.764-1.99-.492-.756-1.11-1.363-1.854-1.819-.744-.455-1.59-.779-2.538-.972-.948-.192-1.926-.288-2.934-.288s-1.992.089-2.952.269c-.96.181-1.824.492-2.592.937-.769.444-1.386 1.05-1.854 1.818-.468.768-.702 1.752-.702 2.951 0 .816.168 1.507.505 2.071.335.564.779 1.032 1.331 1.404.553.372 1.183.672 1.891.9.707.229 1.434.426 2.178.594 1.824.384 3.246.768 4.267 1.152 1.02.384 1.529.96 1.529 1.728 0 .456-.107.834-.324 1.134-.216.3-.485.54-.81.719-.324.181-.684.312-1.08.396-.396.084-.773.126-1.134.126-.504 0-.99-.06-1.458-.181-.468-.119-.882-.306-1.242-.558s-.654-.576-.882-.972c-.141-.244-.237-.518-.291-.821-.062-.345-.354-.601-.704-.601h-3.421c-.445 0-.773.402-.714.843.121.88.379 1.637.773 2.271.517.831 1.176 1.497 1.981 2.001zm14.923-14.256h2.375v10.98c0 .936.156 1.692.469 2.268.312.576.737 1.021 1.277 1.333.54.312 1.164.522 1.872.629.708.108 1.458.163 2.25.163.504 0 1.021-.013 1.548-.037.279-.013.544-.032.796-.058.368-.038.645-.348.645-.718v-3.327c-.24.048-.492.084-.756.107-.265.024-.54.037-.828.037-.864 0-1.44-.144-1.728-.432-.288-.288-.433-.864-.433-1.729v-9.216h3.024c.397 0 .72-.322.72-.72v-1.98c0-.397-.322-.72-.72-.72h-3.024v-4.86c0-.397-.322-.72-.72-.72h-3.672c-.398 0-.721.323-.721.72v4.86h-2.375c-.398 0-.721.322-.721.72v1.98c.001.398.323.72.722.72zm13.859 12.96c.816.864 1.812 1.53 2.988 1.998s2.496.702 3.96.702c2.111 0 3.912-.479 5.4-1.44 1.252-.807 2.232-2.066 2.941-3.775.198-.479-.146-1.012-.664-1.012h-2.988c-.251 0-.501.121-.614.345-.227.45-.637.882-1.231 1.293-.744.517-1.632.773-2.664.773-1.439 0-2.544-.371-3.312-1.115-.769-.744-1.188-1.944-1.26-3.601h12.734c.387 0 .716-.307.723-.694.022-1.19-.107-2.338-.39-3.445-.336-1.32-.882-2.497-1.638-3.529-.756-1.031-1.723-1.854-2.897-2.466-1.177-.612-2.557-.917-4.141-.917-1.416 0-2.706.251-3.87.755s-2.166 1.194-3.006 2.07-1.488 1.914-1.944 3.114-.684 2.496-.684 3.888c0 1.439.222 2.759.666 3.959s1.076 2.233 1.891 3.097zm2.79-10.296c.132-.455.36-.888.685-1.296s.756-.75 1.296-1.026c.54-.275 1.218-.414 2.034-.414 1.247 0 2.178.337 2.79 1.009.611.672 1.037 1.655 1.277 2.951h-8.315c.023-.36.101-.768.233-1.224zm15.463 12.529h3.671c.397 0 .72-.322.72-.72v-7.669c0-.84.084-1.619.252-2.34.168-.72.45-1.35.847-1.89.396-.54.918-.966 1.565-1.278.648-.311 1.44-.468 2.376-.468.312 0 .636.018.973.054.336.036.623.078.863.126v-4.752c-.408-.119-.78-.179-1.115-.179-.648 0-1.272.096-1.872.288-.601.192-1.165.462-1.692.81-.528.349-.996.769-1.404 1.261-.408.492-.732 1.025-.972 1.601h-.072v-2.736c0-.397-.322-.72-.72-.72h-3.419c-.398 0-.721.322-.721.72v17.172c-.001.397.322.72.72.72zm12.78 0h1.871c.023.384-.024.762-.145 1.134-.12.372-.3.708-.54 1.007-.239.3-.521.559-.846.774-.188.126-.383.227-.583.304-.271.104-.442.369-.442.659v1.164c0 .484.467.825.934.695.429-.12.844-.274 1.244-.464.684-.323 1.278-.737 1.782-1.241.504-.505.905-1.098 1.206-1.782.3-.685.449-1.435.449-2.25v-4.824c0-.398-.322-.72-.72-.72h-4.211c-.398 0-.721.322-.721.72v4.104c.002.397.324.72.722.72zm23.416-.636c.084.316.369.536.696.536h4.604c.331 0 .62-.227.699-.549l4.149-16.947h.072l4.22 16.95c.08.321.368.546.699.546h4.501c.326 0 .611-.219.695-.533l6.525-24.264c.123-.458-.222-.907-.695-.907h-4.036c-.334 0-.623.229-.7.553l-4.081 17.158h-.072l-4.256-17.165c-.079-.321-.368-.546-.698-.546h-4.17c-.329 0-.616.223-.697.542l-4.326 16.954h-.072l-3.938-16.939c-.076-.326-.366-.557-.701-.557h-4.145c-.473 0-.816.447-.696.904l6.423 24.264zm29.373-20.416h6.983v20.232c0 .397.322.72.721.72h4.212c.397 0 .72-.323.72-.72v-20.232h6.984c.397 0 .72-.323.72-.72v-3.312c0-.397-.322-.72-.72-.72h-19.62c-.398 0-.721.322-.721.72v3.312c.001.398.323.72.721.72zm23.833 20.952h4.211c.397 0 .72-.323.72-.72v-9.9h10.045c.397 0 .72-.323.72-.72v-2.952c0-.397-.322-.72-.72-.72h-10.045v-5.94h11.7c.397 0 .72-.323.72-.72v-3.312c0-.397-.322-.72-.72-.72h-16.631c-.398 0-.721.322-.721.72v24.264c.001.398.323.72.721.72zm145.808-44.686h-418.624c-2.761 0-5 2.239-5 5v12.019l-24.001 24.142c-1.421 1.43-1.845 3.573-1.074 5.436.771 1.863 2.584 3.081 4.601 3.089l20.475.08v11.009c0 2.761 2.239 5 5 5h418.624c2.761 0 5-2.239 5-5v-55.775c-.001-2.761-2.24-5-5.001-5zm0 60.775h-407.577v-15.989l-25.456-.099 25.456-25.604v-14.083h407.577v55.775z"/></svg>