<?xml version="1.0" encoding="utf-8"?>
<!-- Generator: Adobe Illustrator 16.0.0, SVG Export Plug-In . SVG Version: 6.00 Build 0)  -->
<!DOCTYPE svg PUBLIC "-//W3C//DTD SVG 1.1//EN" "http://www.w3.org/Graphics/SVG/1.1/DTD/svg11.dtd">
<svg version="1.1" id="Layer_1" xmlns="http://www.w3.org/2000/svg" xmlns:xlink="http://www.w3.org/1999/xlink" x="0px" y="0px"
	 width="377.027px" height="141.004px" viewBox="0 0 377.027 141.004" enable-background="new 0 0 377.027 141.004"
	 xml:space="preserve">
<path id="XMLID_904_" fill="#231F20" d="M351.494,113.478h-4.212c-0.397,0-0.72,0.322-0.72,0.72v4.104c0,0.398,0.322,0.72,0.72,0.72
	h4.212c0.397,0,0.72-0.322,0.72-0.72v-4.104C352.214,113.8,351.892,113.478,351.494,113.478z"/>
<path id="XMLID_1085_" fill="#231F20" d="M340.804,100.842c-0.033,0.41,0.308,0.756,0.72,0.756h3.845
	c0.364,0,0.687-0.271,0.715-0.635c0.031-0.413,0.095-0.808,0.191-1.183c0.144-0.563,0.365-1.056,0.666-1.476
	c0.3-0.42,0.684-0.756,1.151-1.008c0.469-0.252,1.026-0.378,1.675-0.378c0.959,0,1.71,0.264,2.25,0.792s0.81,1.344,0.81,2.448
	c0.023,0.647-0.09,1.188-0.342,1.619c-0.252,0.433-0.582,0.828-0.99,1.188s-0.853,0.72-1.332,1.08
	c-0.48,0.359-0.936,0.786-1.368,1.277c-0.432,0.492-0.81,1.087-1.134,1.782c-0.324,0.696-0.521,1.561-0.594,2.592v0.9
	c0,0.398,0.322,0.72,0.72,0.72h4.14v-1.367c0.096-0.721,0.33-1.32,0.702-1.801c0.372-0.479,0.798-0.905,1.278-1.277
	c0.479-0.372,0.99-0.744,1.53-1.116s1.031-0.822,1.476-1.351c0.444-0.527,0.815-1.163,1.116-1.907c0.3-0.744,0.45-1.692,0.45-2.845
	c0-0.695-0.15-1.445-0.45-2.25c-0.301-0.804-0.798-1.553-1.494-2.25c-0.696-0.695-1.614-1.277-2.754-1.745
	c-1.141-0.469-2.562-0.702-4.266-0.702c-1.32,0-2.515,0.222-3.582,0.666c-1.068,0.444-1.98,1.062-2.736,1.854
	s-1.345,1.729-1.764,2.809C341.095,98.9,340.886,99.836,340.804,100.842z"/>
<path id="XMLID_1086_" fill="#231F20" d="M167.54,77.62h4.211c0.397,0,0.72-0.322,0.72-0.72V66.532h10.404V76.9
	c0,0.398,0.323,0.72,0.721,0.72h4.212c0.397,0,0.72-0.322,0.72-0.72V52.636c0-0.398-0.322-0.72-0.72-0.72h-4.212
	c-0.397,0-0.721,0.322-0.721,0.72v9.144h-10.404v-9.144c0-0.398-0.322-0.72-0.72-0.72h-4.211c-0.398,0-0.721,0.322-0.721,0.72V76.9
	C166.819,77.298,167.142,77.62,167.54,77.62z"/>
<path id="XMLID_1092_" fill="#231F20" d="M193.135,75.388c0.816,0.864,1.812,1.53,2.988,1.998s2.496,0.702,3.96,0.702
	c2.111,0,3.912-0.479,5.4-1.44c1.252-0.807,2.232-2.066,2.941-3.775c0.198-0.479-0.146-1.012-0.665-1.012h-2.987
	c-0.251,0-0.501,0.121-0.614,0.345c-0.227,0.45-0.638,0.881-1.231,1.293c-0.744,0.517-1.632,0.773-2.664,0.773
	c-1.439,0-2.544-0.371-3.312-1.115c-0.769-0.744-1.188-1.944-1.26-3.601h12.734c0.387,0,0.716-0.307,0.724-0.695
	c0.021-1.19-0.108-2.338-0.391-3.445c-0.336-1.319-0.882-2.496-1.638-3.528c-0.756-1.031-1.723-1.854-2.897-2.466
	c-1.177-0.612-2.557-0.918-4.141-0.918c-1.416,0-2.706,0.252-3.87,0.756s-2.166,1.194-3.006,2.07s-1.488,1.914-1.944,3.114
	s-0.684,2.496-0.684,3.888c0,1.439,0.222,2.76,0.666,3.96S192.319,74.523,193.135,75.388z M195.925,65.092
	c0.132-0.455,0.36-0.888,0.685-1.296s0.756-0.75,1.296-1.026c0.54-0.275,1.218-0.414,2.034-0.414c1.247,0,2.178,0.337,2.79,1.009
	c0.611,0.672,1.037,1.655,1.277,2.951h-8.315C195.715,65.956,195.793,65.548,195.925,65.092z"/>
<path id="XMLID_1093_" fill="#231F20" d="M215.059,76.468c0.145,0.36,0.216,0.744,0.216,1.152c0,0.552-0.162,1.056-0.485,1.512
	c-0.324,0.456-0.823,0.72-1.494,0.792c-0.504,0.023-1.008,0.012-1.513-0.036c-0.504-0.048-0.996-0.096-1.476-0.144v3.547
	c0,0.375,0.292,0.691,0.667,0.722c0.302,0.024,0.602,0.047,0.899,0.068c0.516,0.036,1.037,0.054,1.565,0.054
	c1.752,0,3.12-0.324,4.104-0.972c0.983-0.648,1.751-1.729,2.304-3.24l7.416-19.945c0.175-0.47-0.174-0.971-0.675-0.971h-3.73
	c-0.313,0-0.591,0.203-0.687,0.501l-3.908,12.243h-0.072l-4.049-12.25c-0.097-0.295-0.373-0.494-0.683-0.494h-3.879
	c-0.502,0-0.85,0.501-0.674,0.972L215.059,76.468z"/>
<path id="XMLID_1094_" fill="#231F20" d="M237.667,77.62h3.852c0.397,0,0.72-0.322,0.72-0.72V59.584h0.071l6.133,17.554
	c0.101,0.289,0.373,0.482,0.68,0.482h3.331c0.307,0,0.58-0.194,0.681-0.485l6.132-17.731h0.072V76.9c0,0.398,0.322,0.72,0.721,0.72
	h3.852c0.397,0,0.72-0.322,0.72-0.72V52.636c0-0.398-0.322-0.72-0.72-0.72h-6.712c-0.312,0-0.589,0.202-0.685,0.5l-5.527,17.176
	h-0.072l-5.846-17.188c-0.099-0.292-0.373-0.488-0.682-0.488h-6.72c-0.398,0-0.721,0.322-0.721,0.72V76.9
	C236.946,77.298,237.269,77.62,237.667,77.62z"/>
<path id="XMLID_1095_" fill="#231F20" d="M268.447,56.128h3.672c0.397,0,0.72-0.322,0.72-0.72v-2.771c0-0.398-0.322-0.72-0.72-0.72
	h-3.672c-0.397,0-0.721,0.322-0.721,0.72v2.771C267.727,55.806,268.05,56.128,268.447,56.128z"/>
<path id="XMLID_1096_" fill="#231F20" d="M268.447,77.62h3.672c0.397,0,0.72-0.322,0.72-0.72V59.728c0-0.398-0.322-0.72-0.72-0.72
	h-3.672c-0.397,0-0.721,0.322-0.721,0.72V76.9C267.727,77.298,268.05,77.62,268.447,77.62z"/>
<path id="XMLID_1097_" fill="#231F20" d="M277.32,76.684c0.804,0.504,1.722,0.864,2.754,1.08c1.031,0.216,2.088,0.324,3.168,0.324
	c1.056,0,2.094-0.103,3.114-0.306c1.02-0.204,1.926-0.559,2.718-1.062s1.434-1.17,1.926-1.998s0.738-1.854,0.738-3.078
	c0-0.863-0.168-1.589-0.504-2.178c-0.337-0.588-0.78-1.08-1.332-1.476c-0.553-0.396-1.183-0.714-1.891-0.954
	s-1.434-0.444-2.178-0.612c-0.72-0.168-1.428-0.324-2.124-0.468c-0.696-0.145-1.313-0.307-1.854-0.486s-0.979-0.414-1.314-0.702
	s-0.504-0.659-0.504-1.115c0-0.384,0.096-0.69,0.288-0.919c0.191-0.228,0.426-0.401,0.702-0.521c0.275-0.12,0.581-0.198,0.918-0.234
	c0.336-0.036,0.647-0.054,0.936-0.054c0.912,0,1.704,0.175,2.376,0.522c0.542,0.28,0.889,0.768,1.041,1.461
	c0.069,0.318,0.366,0.537,0.691,0.537h3.417c0.456,0,0.796-0.423,0.709-0.872c-0.147-0.771-0.402-1.434-0.764-1.99
	c-0.492-0.756-1.11-1.362-1.854-1.818c-0.744-0.455-1.59-0.779-2.538-0.972s-1.926-0.288-2.934-0.288s-1.992,0.09-2.952,0.27
	c-0.96,0.181-1.824,0.492-2.592,0.937c-0.769,0.444-1.386,1.05-1.854,1.818c-0.468,0.768-0.702,1.752-0.702,2.951
	c0,0.816,0.168,1.507,0.505,2.07c0.335,0.564,0.779,1.032,1.331,1.404c0.553,0.372,1.183,0.672,1.891,0.899
	c0.707,0.229,1.434,0.427,2.178,0.595c1.824,0.384,3.246,0.768,4.267,1.151c1.02,0.385,1.529,0.961,1.529,1.729
	c0,0.456-0.107,0.834-0.324,1.134c-0.216,0.301-0.485,0.54-0.81,0.72c-0.324,0.181-0.684,0.312-1.08,0.396
	c-0.396,0.084-0.773,0.126-1.134,0.126c-0.504,0-0.99-0.06-1.458-0.181c-0.468-0.119-0.882-0.306-1.242-0.558
	s-0.654-0.576-0.882-0.972c-0.141-0.244-0.237-0.518-0.291-0.821c-0.062-0.345-0.354-0.601-0.704-0.601h-3.421
	c-0.445,0-0.774,0.402-0.714,0.843c0.121,0.88,0.379,1.636,0.773,2.271C275.856,75.514,276.516,76.18,277.32,76.684z"/>
<path id="XMLID_1205_" fill="#231F20" d="M292.243,62.428h2.375v10.98c0,0.936,0.156,1.691,0.469,2.268
	c0.312,0.576,0.737,1.021,1.277,1.332c0.54,0.312,1.164,0.522,1.872,0.63c0.708,0.108,1.458,0.162,2.25,0.162
	c0.504,0,1.021-0.013,1.548-0.036c0.279-0.013,0.544-0.032,0.796-0.058c0.368-0.038,0.645-0.349,0.645-0.718V73.66
	c-0.24,0.048-0.492,0.084-0.756,0.107c-0.265,0.024-0.54,0.036-0.828,0.036c-0.864,0-1.44-0.144-1.728-0.432
	c-0.288-0.288-0.433-0.864-0.433-1.729v-9.216h3.024c0.397,0,0.72-0.322,0.72-0.72v-1.979c0-0.398-0.322-0.72-0.72-0.72h-3.024
	v-4.86c0-0.398-0.322-0.72-0.72-0.72h-3.672c-0.398,0-0.721,0.322-0.721,0.72v4.86h-2.375c-0.397,0-0.721,0.322-0.721,0.72v1.979
	C291.522,62.105,291.846,62.428,292.243,62.428z"/>
<path id="XMLID_1242_" fill="#231F20" d="M306.103,75.388c0.816,0.864,1.812,1.53,2.988,1.998s2.496,0.702,3.96,0.702
	c2.111,0,3.912-0.479,5.4-1.44c1.252-0.807,2.232-2.066,2.941-3.775c0.198-0.479-0.146-1.012-0.664-1.012h-2.988
	c-0.251,0-0.501,0.121-0.614,0.345c-0.227,0.45-0.637,0.881-1.231,1.293c-0.744,0.517-1.632,0.773-2.664,0.773
	c-1.439,0-2.544-0.371-3.312-1.115c-0.769-0.744-1.188-1.944-1.26-3.601h12.734c0.387,0,0.716-0.307,0.723-0.695
	c0.022-1.19-0.107-2.338-0.39-3.445c-0.336-1.319-0.882-2.496-1.638-3.528c-0.756-1.031-1.723-1.854-2.897-2.466
	c-1.177-0.612-2.557-0.918-4.141-0.918c-1.416,0-2.706,0.252-3.87,0.756s-2.166,1.194-3.006,2.07s-1.488,1.914-1.944,3.114
	s-0.684,2.496-0.684,3.888c0,1.439,0.222,2.76,0.666,3.96S305.287,74.523,306.103,75.388z M308.893,65.092
	c0.132-0.455,0.36-0.888,0.685-1.296s0.756-0.75,1.296-1.026c0.54-0.275,1.218-0.414,2.034-0.414c1.247,0,2.178,0.337,2.79,1.009
	c0.611,0.672,1.037,1.655,1.277,2.951h-8.315C308.683,65.956,308.761,65.548,308.893,65.092z"/>
<path id="XMLID_1243_" fill="#231F20" d="M324.355,77.62h3.671c0.397,0,0.72-0.322,0.72-0.72v-7.668c0-0.84,0.084-1.619,0.252-2.34
	c0.168-0.72,0.45-1.35,0.847-1.89c0.396-0.54,0.918-0.966,1.565-1.278c0.648-0.312,1.44-0.468,2.376-0.468
	c0.312,0,0.636,0.018,0.973,0.054c0.336,0.036,0.623,0.078,0.863,0.126v-4.752c-0.408-0.119-0.78-0.18-1.115-0.18
	c-0.648,0-1.272,0.096-1.872,0.288c-0.601,0.192-1.165,0.462-1.692,0.81c-0.528,0.349-0.996,0.769-1.404,1.261
	s-0.732,1.025-0.972,1.602h-0.072v-2.736c0-0.398-0.322-0.72-0.72-0.72h-3.419c-0.397,0-0.721,0.322-0.721,0.72V76.9
	C323.635,77.298,323.958,77.62,324.355,77.62z"/>
<path id="XMLID_1418_" fill="#231F20" d="M337.136,77.62h1.871c0.023,0.384-0.024,0.762-0.145,1.134s-0.3,0.708-0.54,1.008
	c-0.239,0.3-0.521,0.559-0.846,0.774c-0.188,0.125-0.383,0.227-0.583,0.303c-0.271,0.104-0.442,0.37-0.442,0.659v1.165
	c0,0.484,0.468,0.825,0.934,0.695c0.429-0.12,0.844-0.274,1.244-0.464c0.684-0.323,1.278-0.737,1.782-1.241
	c0.504-0.505,0.905-1.099,1.206-1.782c0.3-0.685,0.449-1.435,0.449-2.25v-4.824c0-0.398-0.322-0.72-0.72-0.72h-4.211
	c-0.398,0-0.721,0.322-0.721,0.72V76.9C336.415,77.298,336.737,77.62,337.136,77.62z"/>
<path id="XMLID_1419_" fill="#231F20" d="M185.589,93.317h-4.169c-0.329,0-0.616,0.223-0.698,0.542l-4.325,16.954h-0.072
	l-3.938-16.939c-0.076-0.326-0.367-0.557-0.701-0.557h-4.145c-0.473,0-0.817,0.447-0.696,0.904l6.423,24.264
	c0.084,0.315,0.369,0.536,0.696,0.536h4.604c0.331,0,0.62-0.227,0.699-0.549l4.149-16.947h0.072l4.22,16.95
	c0.08,0.321,0.368,0.546,0.698,0.546h4.502c0.325,0,0.61-0.219,0.695-0.533l6.524-24.264c0.123-0.458-0.221-0.907-0.695-0.907
	h-4.035c-0.334,0-0.624,0.229-0.701,0.553l-4.08,17.159h-0.072l-4.256-17.166C186.208,93.543,185.92,93.317,185.589,93.317z"/>
<path id="XMLID_1420_" fill="#231F20" d="M222.26,93.317h-19.621c-0.397,0-0.72,0.322-0.72,0.72v3.312c0,0.397,0.322,0.72,0.72,0.72
	h6.984v20.232c0,0.398,0.322,0.72,0.72,0.72h4.213c0.397,0,0.72-0.322,0.72-0.72V98.069h6.984c0.397,0,0.72-0.323,0.72-0.72v-3.312
	C222.979,93.64,222.657,93.317,222.26,93.317z"/>
<path id="XMLID_1421_" fill="#231F20" d="M243.823,94.037c0-0.397-0.322-0.72-0.72-0.72h-16.632c-0.397,0-0.72,0.322-0.72,0.72
	v24.264c0,0.398,0.322,0.72,0.72,0.72h4.212c0.397,0,0.72-0.322,0.72-0.72v-9.9h10.045c0.397,0,0.72-0.322,0.72-0.72v-2.952
	c0-0.397-0.322-0.72-0.72-0.72h-10.045v-5.94h11.7c0.397,0,0.72-0.323,0.72-0.72V94.037z"/>
<path id="XMLID_1422_" fill="#231F20" d="M338.304,118.732h-91.98c-1.381,0-2.5,1.119-2.5,2.5s1.119,2.5,2.5,2.5h91.98
	c1.381,0,2.5-1.119,2.5-2.5S339.685,118.732,338.304,118.732z"/>
<path id="XMLID_1425_" fill="#231F20" d="M372.027,32.834H140.185c-2.762,0-5,2.239-5,5v34.569l-24.008,24.243
	c-1.42,1.434-1.839,3.58-1.062,5.443c0.777,1.862,2.598,3.075,4.615,3.075h20.455v30.988c0,2.762,2.238,5,5,5h231.843
	c2.762,0,5-2.238,5-5V37.834C377.027,35.073,374.789,32.834,372.027,32.834z M372.027,136.153H151.988v-35.988h-25.455
	l25.455-25.704V37.834h220.039V136.153z"/>
<path id="XMLID_1428_" fill="#231F20" d="M106.022,26.024c-4.568,1.738-9.2,2.162-13.703,1.196
	c6.43-3.463,10.732-10.235,11.076-17.829c0.101-2.224-2.771-3.219-4.268-1.768c-6.716,6.514-16.274,3.025-23.631-0.212
	c-7.515-3.308-14.771-6.152-22.996-7.189c-2.325-0.293-4.781-0.374-7.235-0.212c-1.006-0.066-2.027-0.094-3.055-0.08
	C32.279-0.212,21.473,3.49,18.925,13.39c-0.768-0.136-1.542-0.182-2.312-0.135c-3.811-0.19-7.651,1.833-10.037,5.326
	c-4.255,6.227-5.022,15.037-5.75,22.349C-0.8,57.275-0.367,75.383,5.249,90.994c0.062,0.171,0.146,0.33,0.24,0.481
	c0.348,7.008,1.637,13.955,4.357,20.77c3.549,8.887,8.682,17.83,17.061,22.941c8.258,5.038,18.955,6.149,29.371,5.741
	c0,0,0.013-0.001,0.019-0.001c0.567-0.012,1.131-0.037,1.692-0.069c0.023,0,0.045,0,0.068,0c0.053,0,0.103-0.008,0.155-0.009
	c0.008,0,0.015-0.001,0.022-0.001c1.17-0.024,2.27-0.153,3.337-0.334c0.095-0.013,0.19-0.021,0.285-0.035
	c0.218-0.031,0.423-0.081,0.637-0.116c22.748-3.786,26.66-32.982,28.465-51.663c1.192-12.351,0.979-25.375-1.688-37.539
	c-0.259-1.178-0.555-2.359-0.891-3.534c9.152-3.18,17.467-9.205,20.719-18.526C109.695,27.388,107.771,25.359,106.022,26.024z
	 M86.257,85.093c-0.646,9.348-2.365,18.581-4.895,27.594c-0.391,1.392-0.797,2.779-1.225,4.16
	c-2.777,8.951-8.475,16.748-18.251,18.587c-2.882,0.542-6.022,0.702-9.198,0.508c-0.188-0.012-0.376-0.021-0.563-0.035
	c-5.934-0.442-11.947-2.139-16.603-5.038c-7.598-4.731-12.229-13.194-15.309-21.358c-2.359-6.256-3.461-12.642-3.729-19.086
	c4.339-8.982,5.52-19.528,7.715-29.141c1.354-5.931,3.568-17.848,9.656-20.766c0.163-0.078,0.332-0.144,0.501-0.208
	c1.634-0.628,3.528-0.635,5.747,0.264c6.594,2.187,12.506,6.083,19.166,8.089c3.055,0.92,6.24,1.442,9.449,1.645
	c0.176,0.011,0.352,0.031,0.527,0.041c2.844,0.146,5.698,0.023,8.5-0.308c0.354-0.042,0.709-0.083,1.061-0.132
	c0.165-0.022,0.332-0.037,0.496-0.062c1.131-0.167,2.27-0.391,3.409-0.642c0.285-0.062,0.57-0.117,0.856-0.185
	c0.396,1.396,0.74,2.799,1.027,4.188C86.737,63.566,86.985,74.567,86.257,85.093z M100.541,34.194
	c-3.467,4.067-8.44,6.942-13.751,8.759c-1.594,0.545-3.215,0.996-4.836,1.355c-2.819,0.625-5.633,0.977-8.271,1.07
	c-1.38,0.049-2.747,0.027-4.104-0.053c-0.179-0.011-0.357-0.021-0.535-0.033c-4.309-0.309-8.501-1.279-12.538-2.993
	c-5.051-2.143-9.851-4.815-15.072-6.547c-2.875-1.165-5.357-1.329-7.515-0.785c-0.169,0.042-0.335,0.091-0.5,0.143
	c-3.173,0.984-5.616,3.529-7.534,6.687c-1.375,2.261-2.48,4.831-3.397,7.358c-0.381,1.051-0.731,2.095-1.053,3.104
	c-0.004,0.013-0.008,0.025-0.013,0.038c-0.053,0.167-0.105,0.334-0.157,0.499c-1.307,4.182-2.18,8.584-3.021,13.017
	c-0.646,3.405-1.278,6.826-2.07,10.181c-0.567,2.401-1.215,4.769-2.017,7.068c-0.146-0.575-0.279-1.154-0.412-1.732
	c-0.555-2.422-1.003-4.873-1.354-7.342c-0.105-0.747-0.198-1.496-0.287-2.245c-0.146-1.228-0.271-2.458-0.377-3.691
	c-0.443-5.194-0.549-10.417-0.462-15.551c0.105-6.293,0.536-12.622,1.636-18.825c0.478-2.69,1.011-5.455,1.906-8.044
	c0.689-1.992,2.216-4.844,4.216-6.46c0.183-0.147,0.37-0.281,0.56-0.406c1.12-0.738,2.367-1.062,3.686-0.65
	c0.311,0.097,0.625,0.233,0.942,0.417c0.324,0.187,0.651,0.416,0.981,0.702c1.625,1.404,4.209,0.489,4.269-1.768
	c0.21-8.039,7.479-11.758,14.571-12.511c0.13-0.014,0.26-0.023,0.391-0.035c0.922-0.084,1.839-0.125,2.733-0.111
	c8.122,0.118,16.011,2.536,23.37,5.812c5.082,2.263,10.752,4.647,16.32,5.359c0.205,0.026,0.411,0.053,0.616,0.075
	c0.999,0.105,1.994,0.154,2.981,0.136c0.378-0.007,0.753-0.035,1.129-0.062c1.654-0.12,3.279-0.447,4.859-1.023
	c0.252-0.092,0.506-0.168,0.756-0.273c-0.533,1.284-1.231,2.474-2.065,3.554c-2.591,3.361-6.512,5.649-11.03,6.265
	c-2.169,0.295-2.36,3.631-0.598,4.569c3.413,1.815,7.014,2.918,10.674,3.319c0.187,0.021,0.371,0.053,0.558,0.07
	c0.3,0.027,0.601,0.035,0.901,0.052c0.354,0.02,0.707,0.037,1.062,0.043c1.633,0.031,3.272-0.078,4.907-0.338
	c0.128-0.021,0.256-0.028,0.384-0.05C101.536,32.967,101.054,33.592,100.541,34.194z"/>
<path id="XMLID_1432_" fill="#231F20" d="M39.776,63.657c-0.165,0.099-0.328,0.204-0.486,0.328
	c-0.027,0.021-0.056,0.033-0.081,0.055c-3.578,1.742-5.972,8.555-6.413,11.917c-0.577,4.399,0.413,12.083,4.587,14.47
	c0.156,0.089,0.317,0.169,0.481,0.243c1.365,0.612,3.036,0.694,5.07-0.022c3.833-1.35,5.794-5.691,6.6-10.328
	c0.369-2.127,0.495-4.313,0.445-6.305c-0.039-1.578-0.188-3.033-0.412-4.232C48.732,65.336,43.491,61.435,39.776,63.657z
	 M45.686,76.118c-0.213,0.234-0.466,0.429-0.741,0.583c-0.346,0.192-0.728,0.309-1.118,0.353c-0.585,0.066-1.188-0.038-1.708-0.369
	c-0.852-0.543-1.395-1.45-1.574-2.438c-0.325-1.795,0.053-4.403,2.018-5.058c0.223-0.114,0.459-0.191,0.7-0.25
	c0.351-0.086,0.713-0.109,1.075-0.059c0.135,0.019,0.27,0.036,0.402,0.076c1.201,0.363,1.93,1.417,2.091,2.616
	C47.042,73.146,46.788,74.906,45.686,76.118z"/>
<path id="XMLID_1435_" fill="#231F20" d="M60.737,90.3c0.175,0.083,0.35,0.167,0.534,0.236c0.996,0.37,2.14,0.528,3.462,0.387
	c6.732-0.718,7.432-11.002,7.471-16.108c0.024-3.117-0.964-6.539-2.932-8.547c-0.03-1.439-1.255-3.01-3.127-2.697
	c-0.971,0.163-1.86,0.425-2.684,0.761c-0.273,0.111-0.541,0.229-0.798,0.358c-4.689,2.346-6.803,7.505-7.076,13.006
	C55.363,82.201,56.574,88.305,60.737,90.3z M64.354,69.188c0.188-0.096,0.388-0.169,0.59-0.227c0.338-0.096,0.688-0.14,1.041-0.109
	c0.183,0.016,0.365,0.048,0.546,0.103c1.201,0.363,1.93,1.417,2.092,2.616c0.211,1.576-0.042,3.336-1.145,4.548
	c-0.094,0.104-0.199,0.195-0.307,0.283c-0.326,0.268-0.71,0.458-1.115,0.568c-0.715,0.193-1.494,0.13-2.146-0.285
	c-0.853-0.543-1.395-1.45-1.574-2.438C62.01,72.45,62.388,69.842,64.354,69.188z"/>
<path id="XMLID_1438_" fill="#231F20" d="M69.81,97.423c-1.773-0.819-3.841-0.748-5.948-0.342c-0.223,0.043-0.446,0.09-0.671,0.141
	c-2.631,0.586-5.282,1.602-7.466,1.994c-3.561,0.639-8.804,1.47-13.601,1.122c-0.178-0.013-0.356-0.021-0.532-0.037
	c-3.978-0.367-7.588-1.595-9.579-4.511c-0.021-0.032-0.048-0.054-0.07-0.085c-0.029-0.167-0.061-0.333-0.088-0.501
	c-0.481-2.904-4.562-2.01-4.836,0.589c-0.024,0.235-0.029,0.479,0.015,0.741c0.036,0.216,0.077,0.426,0.114,0.641
	c0.396,2.28,0.877,4.461,1.48,6.541c0.922,3.18,2.133,6.123,3.783,8.81c2.27,3.696,5.361,6.914,9.672,9.612
	c2.047,1.282,4.434,2.067,6.946,2.412c0.215,0.03,0.434,0.041,0.65,0.064c7.228,0.77,15.352-2.025,19.54-7.315
	C73.082,112.417,77.945,101.177,69.81,97.423z M69.141,106.077c-0.165,0.961-0.487,1.916-0.743,2.643
	c-0.775,2.207-1.972,4.299-3.531,6.029c-1.785,1.981-4.047,3.484-6.72,4.11c-2.38,0.558-5.466,0.848-8.319,0.541
	c-0.182-0.02-0.362-0.039-0.541-0.063c-1.748-0.239-3.384-0.717-4.68-1.518c-5.387-3.328-8.424-7.716-10.327-12.857
	c-0.018-0.047-0.036-0.095-0.053-0.142c-0.18-0.492-0.353-0.988-0.513-1.493c2.485,1.112,5.266,1.582,8.132,1.746
	c0.122,0.007,0.242,0.019,0.364,0.024c1.887,0.091,3.807,0.055,5.705-0.023c4-0.165,8.023-0.705,11.927-1.602
	c0.598-0.137,1.489-0.443,2.484-0.738c0.263-0.078,0.531-0.155,0.806-0.229c1.688-0.451,3.524-0.74,4.752-0.129
	c0.39,0.194,0.726,0.469,0.966,0.871c0.219,0.367,0.333,0.792,0.377,1.244C69.276,104.995,69.233,105.536,69.141,106.077z"/>
<path id="XMLID_1439_" fill="#231F20" d="M64.655,54.546c-0.206,0.03-0.413,0.068-0.619,0.104c-1.502,0.266-3.007,0.673-4.476,1.136
	c-1.839,0.58-2.092,2.552-1.338,3.825c0.05,0.083,0.101,0.163,0.158,0.239c0.528,0.701,1.401,1.107,2.509,0.758
	c0.906-0.286,1.888-0.605,2.895-0.865c0.224-0.058,0.448-0.112,0.674-0.163c1.734-0.39,3.51-0.538,5.088,0.029
	c0.311,0.112,0.613,0.254,0.906,0.425c0.348,0.203,0.686,0.441,1.003,0.739c2.349,2.196,5.892-1.332,3.536-3.536
	C71.976,54.417,68.339,53.998,64.655,54.546z"/>
<path id="XMLID_1440_" fill="#231F20" d="M32.015,58.826c0.705,1.316,2.587,2.123,4.044,0.811c0.952-0.857,2.158-1.812,3.445-2.525
	c0.193-0.107,0.388-0.208,0.584-0.302c0.762-0.367,1.542-0.64,2.308-0.729c1.318-0.154,2.785,0.693,4.13,1.658
	c0.313,0.225,0.619,0.455,0.915,0.681c0.568,0.434,1.099,0.851,1.567,1.171c1.138,0.779,2.243,0.43,2.934-0.363
	c0.647-0.743,0.921-1.872,0.511-2.841c-0.175-0.416-0.468-0.803-0.921-1.113c-2.927-2.004-5.751-4.885-9.534-4.23
	c-0.513,0.088-1.016,0.214-1.514,0.358c-0.203,0.059-0.402,0.128-0.604,0.196c-2.738,0.92-5.244,2.601-7.356,4.504
	c-0.699,0.63-0.882,1.375-0.746,2.062C31.823,58.394,31.901,58.616,32.015,58.826z"/>
</svg>
